<svg width="9" height="7" viewBox="0 0 9 7" fill="none" xmlns="http://www.w3.org/2000/svg">
<path d="M3.55377 6.45624C3.47173 6.45641 3.39047 6.44038 3.31464 6.40906C3.23881 6.37774 3.16991 6.33176 3.1119 6.27374L0.460648 3.62187C0.400915 3.56426 0.353253 3.49533 0.320445 3.4191C0.287636 3.34287 0.270338 3.26087 0.269559 3.17788C0.26878 3.0949 0.284535 3.01259 0.315906 2.93576C0.347278 2.85892 0.393636 2.78911 0.452277 2.73038C0.510918 2.67166 0.580667 2.6252 0.657454 2.59372C0.734241 2.56224 0.816529 2.54637 0.899516 2.54703C0.982502 2.5477 1.06453 2.56488 1.1408 2.59758C1.21708 2.63028 1.28608 2.67784 1.34377 2.73749L3.55315 4.94687L7.53127 0.969995C7.64847 0.85272 7.80745 0.786802 7.97324 0.786743C8.13903 0.786685 8.29806 0.85249 8.41534 0.969682C8.53261 1.08687 8.59853 1.24586 8.59859 1.41165C8.59865 1.57744 8.53284 1.73647 8.41565 1.85374L3.99565 6.27374C3.93764 6.33176 3.86874 6.37774 3.79291 6.40906C3.71708 6.44038 3.63581 6.45641 3.55377 6.45624Z" fill="#2FAB73"/>
</svg>
