<svg width="51" height="51" viewBox="0 0 51 51" fill="none" xmlns="http://www.w3.org/2000/svg">
<g clip-path="url(#clip0)">
<g filter="url(#filter0_d)">
<path d="M50.7057 9.15471C50.4137 8.7363 49.944 8.47768 49.4337 8.45588L17.7979 7.09223C16.8902 7.05252 16.1317 7.75328 16.0929 8.65675C16.0543 9.55987 16.754 10.323 17.6573 10.3618L47.1513 11.6332L41.3521 29.7269H15.5453L10.8829 4.34052C10.7804 3.78413 10.3984 3.31996 9.8716 3.11327L2.2354 0.113321C1.39379 -0.216176 0.444106 0.197208 0.113581 1.03779C-0.216373 1.87882 0.196897 2.82908 1.03805 3.15961L7.82784 5.82697L12.5725 31.6589C12.7155 32.4355 13.3923 32.9995 14.1822 32.9995H14.9693L13.1721 37.9916C13.0216 38.4098 13.0836 38.8742 13.3396 39.2375C13.5953 39.6009 14.011 39.817 14.4549 39.817H15.7155C14.9344 40.6864 14.4549 41.831 14.4549 43.0898C14.4549 45.7967 16.6575 47.9988 19.3639 47.9988C22.0703 47.9988 24.2729 45.7967 24.2729 43.0898C24.2729 41.8311 23.7935 40.6864 23.0125 39.817H33.7154C32.9339 40.6864 32.4546 41.831 32.4546 43.0898C32.4546 45.7967 34.6566 47.9988 37.3636 47.9988C40.0707 47.9988 42.2726 45.7967 42.2726 43.0898C42.2726 41.8311 41.7933 40.6864 41.0124 39.817H42.5454C43.2987 39.817 43.909 39.2066 43.909 38.4535C43.909 37.7002 43.2985 37.0899 42.5454 37.0899H16.3951L17.8676 32.9991H42.5453C43.2569 32.9991 43.8866 32.5393 44.1033 31.8623L50.9214 10.5897C51.078 10.1042 50.9976 9.57334 50.7057 9.15471ZM19.364 45.2721C18.1607 45.2721 17.1822 44.2936 17.1822 43.0903C17.1822 41.887 18.1607 40.9085 19.364 40.9085C20.5673 40.9085 21.5458 41.887 21.5458 43.0903C21.5458 44.2936 20.5673 45.2721 19.364 45.2721ZM37.3636 45.2721C36.1603 45.2721 35.1819 44.2936 35.1819 43.0903C35.1819 41.887 36.1603 40.9085 37.3636 40.9085C38.5669 40.9085 39.5453 41.887 39.5453 43.0903C39.5453 44.2936 38.5669 45.2721 37.3636 45.2721Z" fill="white"/>
</g>
</g>
<defs>
<filter id="filter0_d" x="-4" y="0" width="58.9999" height="55.9988" filterUnits="userSpaceOnUse" color-interpolation-filters="sRGB">
<feFlood flood-opacity="0" result="BackgroundImageFix"/>
<feColorMatrix in="SourceAlpha" type="matrix" values="0 0 0 0 0 0 0 0 0 0 0 0 0 0 0 0 0 0 127 0"/>
<feOffset dy="4"/>
<feGaussianBlur stdDeviation="2"/>
<feColorMatrix type="matrix" values="0 0 0 0 0 0 0 0 0 0 0 0 0 0 0 0 0 0 0.25 0"/>
<feBlend mode="normal" in2="BackgroundImageFix" result="effect1_dropShadow"/>
<feBlend mode="normal" in="SourceGraphic" in2="effect1_dropShadow" result="shape"/>
</filter>
<clipPath id="clip0">
<rect width="51" height="51" fill="white"/>
</clipPath>
</defs>
</svg>
