<svg width="55" height="58" viewBox="0 0 55 58" fill="none" xmlns="http://www.w3.org/2000/svg">
<g filter="url(#filter0_d)">
<path d="M39.9712 27.4626C41.8447 28.2926 43.0553 30.153 43.0553 32.2018V34.6789C43.0553 35.0834 43.3832 35.4113 43.7877 35.4113C44.1922 35.4113 44.5201 35.0834 44.5201 34.6789V32.2018C44.5201 29.574 42.9675 27.1881 40.5564 26.1198L32.6136 22.7161C32.6138 22.6961 32.6153 22.6759 32.6153 22.656V19.4946C34.2511 18.0396 35.2843 15.9211 35.2843 13.565L35.2868 7.44538C35.2868 5.81786 34.7973 4.25323 33.8714 2.92052C32.9669 1.61868 31.7117 0.626307 30.2416 0.0504339C29.9556 -0.0614791 29.6302 0.0167428 29.4264 0.246526L28.322 1.49231C27.6763 2.20647 26.7543 2.61603 25.7927 2.61603H23.6195C21.2971 2.61603 19.4075 4.50527 19.4075 6.82752V10.787V10.7871C19.4075 10.7871 19.4075 10.7871 19.4075 10.7872V13.5649C19.4075 15.9222 20.4417 18.0417 22.079 19.4966V22.656C22.079 22.6861 22.0812 22.7162 22.0818 22.7463L14.2443 26.1532C11.7719 27.1937 10.1742 29.5991 10.1742 32.2813V34.679C10.1742 35.0835 10.5022 35.4114 10.9066 35.4114C11.3111 35.4114 11.6391 35.0835 11.6391 34.679V32.2813C11.6391 30.1901 12.8846 28.3147 14.8204 27.5001L18.7131 25.808C19.3558 27.364 20.4014 28.7089 21.7718 29.7292C23.3928 30.9362 25.3203 31.5742 27.346 31.5742C28.9475 31.5742 30.528 31.1619 31.9166 30.3818C32.1121 30.2719 32.3064 30.1534 32.4941 30.0292C32.8315 29.8061 32.9242 29.3517 32.7011 29.0143C32.4779 28.6769 32.0235 28.5842 31.6861 28.8074C31.5278 28.9121 31.3641 29.0121 31.1991 29.1046C30.0291 29.7619 28.6967 30.1093 27.3459 30.1093C24.112 30.1093 21.2598 28.1715 20.0559 25.2243L22.3219 24.2394C22.9992 26.3939 25.0151 27.9236 27.3472 27.9236C29.6958 27.9236 31.7159 26.3811 32.382 24.2107L34.6522 25.1835C34.4241 25.748 34.1309 26.2849 33.7758 26.7853C33.5417 27.1152 33.6192 27.5724 33.9491 27.8065C34.0777 27.8978 34.2258 27.9417 34.3723 27.9417C34.6016 27.9417 34.8274 27.8342 34.9703 27.6331C35.3857 27.0477 35.7293 26.4201 35.9984 25.7603L39.9712 27.4626ZM20.8724 13.5649V11.4524C21.2043 11.387 21.5263 11.275 21.8261 11.1191C22.2701 10.8881 22.6693 10.5571 22.9803 10.1616C23.2305 9.8437 23.1756 9.38316 22.8577 9.13306C22.5397 8.88277 22.0793 8.93775 21.8292 9.25572C21.6458 9.48882 21.4109 9.68374 21.1501 9.81938C21.056 9.86831 20.9629 9.90727 20.8724 9.93852V6.82752C20.8724 5.31298 22.1048 4.08086 23.6195 4.08086H25.7927C27.1677 4.08086 28.4857 3.49542 29.4134 2.46936L30.1699 1.61595C32.4044 2.69338 33.8219 4.92998 33.8219 7.44528V8.94166C32.9033 9.28169 31.9363 9.45591 30.9422 9.45591C28.7772 9.45591 26.7266 8.62828 25.1683 7.12546C24.8772 6.84471 24.4135 6.8531 24.1327 7.14421C23.8519 7.43542 23.8602 7.89899 24.1514 8.17985C25.9842 9.94741 28.3959 10.9207 30.9422 10.9207C31.9275 10.9207 32.8912 10.7766 33.8176 10.4913C33.8201 10.5353 33.8195 13.5649 33.8195 13.5649C33.8195 17.1339 30.9154 20.0374 27.3459 20.0374C23.7764 20.0374 20.8724 17.1339 20.8724 13.5649ZM27.3471 26.4587C25.4281 26.4587 23.8054 25.025 23.5725 23.123C23.5535 22.9687 23.5438 22.8115 23.5438 22.6559V20.5306C24.6736 21.1496 25.9693 21.5023 27.3459 21.5023C28.7236 21.5023 30.0201 21.1491 31.1505 20.5291V22.656C31.1505 22.8038 31.1417 22.9532 31.124 23.102C30.9018 25.0156 29.2781 26.4587 27.3471 26.4587Z" fill="white"/>
<path d="M33.4122 41.0754L29.8387 40.5562L28.2406 37.3185C28.0726 36.9783 27.7327 36.767 27.3532 36.767C26.9737 36.767 26.6338 36.9784 26.4659 37.3185L24.8678 40.5563L21.2942 41.0755C20.9187 41.1301 20.6125 41.3882 20.4953 41.7492C20.3781 42.11 20.4741 42.4987 20.7458 42.7634L23.3316 45.2836L22.7212 48.8422C22.6571 49.2161 22.8079 49.5869 23.1148 49.8099C23.4218 50.0329 23.821 50.0619 24.1569 49.8853L27.3532 48.2051L30.5495 49.8853C30.6955 49.9621 30.8535 50 31.0108 50C31.2151 50 31.4181 49.9359 31.5915 49.8099C31.8984 49.5869 32.0493 49.2161 31.9852 48.8421L31.3747 45.2836L33.9604 42.7634C34.2322 42.4987 34.3282 42.11 34.211 41.7492C34.0939 41.3882 33.7878 41.1301 33.4122 41.0754ZM26.9271 37.9669L26.9276 37.9679C26.9274 37.9675 26.9272 37.9672 26.9271 37.9669C26.927 37.9669 26.927 37.9669 26.9271 37.9669ZM30.1735 44.409C29.9402 44.6364 29.8338 44.9639 29.8889 45.2849L30.3788 48.1406L27.8136 46.7922C27.5251 46.6406 27.181 46.6407 26.8927 46.7922L24.3276 48.1406L24.8176 45.2849C24.8726 44.9638 24.7663 44.6363 24.5329 44.4089L22.4579 42.3865L25.3255 41.97C25.648 41.9231 25.9266 41.7206 26.0706 41.4286L27.3532 38.8302L28.6356 41.4284C28.7797 41.7206 29.0583 41.9231 29.3808 41.9699L32.2484 42.3865L30.1735 44.409Z" fill="white"/>
<path d="M16.966 41.0754L13.3925 40.5562L11.7944 37.3185C11.6264 36.9783 11.2865 36.767 10.907 36.767C10.5275 36.767 10.1875 36.9784 10.0197 37.3185L8.42154 40.5563L4.84794 41.0755C4.47246 41.1301 4.16631 41.3882 4.04912 41.7492C3.93194 42.11 4.02793 42.4987 4.29961 42.7634L6.88542 45.2836L6.27498 48.8422C6.21092 49.2161 6.3617 49.5869 6.66863 49.8099C6.97556 50.0329 7.37477 50.0619 7.71071 49.8853L10.907 48.2051L14.1033 49.8853C14.2493 49.9621 14.4073 50 14.5645 50C14.7688 50 14.9719 49.9359 15.1453 49.8099C15.4522 49.5869 15.6031 49.2161 15.5389 48.8421L14.9285 45.2836L17.5142 42.7634C17.786 42.4987 17.882 42.11 17.7648 41.7492C17.6477 41.3882 17.3416 41.1301 16.966 41.0754ZM10.4808 37.9669L10.4813 37.9679C10.4812 37.9675 10.481 37.9672 10.4808 37.9669ZM13.7272 44.409C13.494 44.6364 13.3876 44.9639 13.4427 45.2849L13.9326 48.1406L11.3674 46.7922C11.079 46.6407 10.7349 46.6407 10.4465 46.7922L7.88141 48.1406L8.37135 45.2849C8.42642 44.9638 8.32008 44.6363 8.08668 44.4089L6.0117 42.3865L8.87925 41.97C9.20181 41.9231 9.48042 41.7206 9.62436 41.4286L10.907 38.8302L12.1894 41.4284C12.3335 41.7206 12.6121 41.9231 12.9346 41.9699L15.8022 42.3865L13.7272 44.409Z" fill="white"/>
<path d="M50.6451 41.7491C50.528 41.3881 50.2218 41.13 49.8462 41.0754L46.2727 40.5562L44.6746 37.3185C44.5066 36.9783 44.1667 36.767 43.7872 36.767C43.4077 36.767 43.0678 36.9784 42.8999 37.3185L41.3018 40.5563L37.7282 41.0755C37.3527 41.1301 37.0466 41.3882 36.9294 41.7492C36.8122 42.11 36.9082 42.4987 37.1799 42.7634L39.7657 45.2836L39.1552 48.8422C39.0912 49.2161 39.2419 49.5869 39.5489 49.8099C39.8558 50.0329 40.255 50.0619 40.591 49.8853L43.7872 48.2051L46.9836 49.8853C47.1296 49.9621 47.2876 50 47.4448 50C47.6491 50 47.8521 49.9359 48.0255 49.8099C48.3325 49.5869 48.4833 49.2161 48.4192 48.8421L47.8087 45.2836L50.3945 42.7634C50.6662 42.4986 50.7623 42.11 50.6451 41.7491ZM43.361 37.9669L43.3615 37.9679C43.3613 37.9675 43.3611 37.9672 43.361 37.9669C43.3609 37.9669 43.3609 37.9669 43.361 37.9669ZM46.6074 44.409C46.3741 44.6364 46.2677 44.9639 46.3228 45.2849L46.8128 48.1406L44.2476 46.7922C43.9592 46.6407 43.615 46.6407 43.3267 46.7922L40.7616 48.1406L41.2515 45.2849C41.3066 44.9638 41.2002 44.6363 40.9668 44.4089L38.8918 42.3865L41.7594 41.97C42.082 41.9231 42.3606 41.7206 42.5045 41.4286L43.7871 38.8302L45.0695 41.4284C45.2137 41.7206 45.4923 41.9231 45.8147 41.9699L48.6824 42.3865L46.6074 44.409Z" fill="white"/>
</g>
<defs>
<filter id="filter0_d" x="0" y="0" width="54.6942" height="58" filterUnits="userSpaceOnUse" color-interpolation-filters="sRGB">
<feFlood flood-opacity="0" result="BackgroundImageFix"/>
<feColorMatrix in="SourceAlpha" type="matrix" values="0 0 0 0 0 0 0 0 0 0 0 0 0 0 0 0 0 0 127 0"/>
<feOffset dy="4"/>
<feGaussianBlur stdDeviation="2"/>
<feColorMatrix type="matrix" values="0 0 0 0 0 0 0 0 0 0 0 0 0 0 0 0 0 0 0.25 0"/>
<feBlend mode="normal" in2="BackgroundImageFix" result="effect1_dropShadow"/>
<feBlend mode="normal" in="SourceGraphic" in2="effect1_dropShadow" result="shape"/>
</filter>
</defs>
</svg>
