<svg width="56" height="58" viewBox="0 0 56 58" fill="none" xmlns="http://www.w3.org/2000/svg">
<g filter="url(#filter0_d)">
<path fill-rule="evenodd" clip-rule="evenodd" d="M21.1099 27.5982C21.1099 24.1635 18.3156 21.3688 14.8805 21.3688C11.4457 21.3688 8.65143 24.1635 8.65143 27.5982C8.65143 31.033 11.4457 33.8276 14.8805 33.8276C18.3156 33.8276 21.1099 31.033 21.1099 27.5982ZM10.6046 27.5982C10.6046 25.2404 12.5226 23.322 14.8805 23.322C17.2383 23.322 19.1567 25.2404 19.1567 27.5982C19.1567 29.9561 17.2383 31.8745 14.8805 31.8745C12.5226 31.8745 10.6046 29.9561 10.6046 27.5982Z" fill="white"/>
<path fill-rule="evenodd" clip-rule="evenodd" d="M51.1795 8.1669L49.152 4.85078L51.2097 1.48621C51.3939 1.18447 51.4008 0.807192 51.2284 0.498963C51.0555 0.190735 50.7298 0 50.3765 0H42.181C41.6416 0 41.2044 0.437165 41.2044 0.976564V12.2341H35.5621C32.8323 12.2341 30.6118 14.4547 30.6118 17.1845V27.1432C30.6118 29.873 32.8323 32.0935 35.5621 32.0935H44.6896C46.3421 32.0935 47.6864 33.4382 47.6864 35.0907V45.0498C47.6864 46.7023 46.3421 48.0466 44.6896 48.0466H16.0926L24.1218 31.9649C24.1291 31.9508 24.1359 31.9363 24.142 31.9218C24.7295 30.5855 25.027 29.1638 25.027 27.6959C25.027 21.8987 20.3109 17.1822 14.5137 17.1822C8.7165 17.1822 4 21.8987 4 27.6959C4 29.1642 4.29755 30.5859 4.88463 31.9218C4.89112 31.9363 4.89798 31.9508 4.90485 31.9649L7.52708 37.217C7.76817 37.6992 8.35487 37.8953 8.83705 37.6546C9.31961 37.4135 9.51568 36.8272 9.27459 36.3446L6.66381 31.1146C6.19231 30.0339 5.95313 28.8838 5.95313 27.6955C5.95313 22.9756 9.79339 19.1353 14.5137 19.1353C19.2336 19.1353 23.0739 22.9756 23.0739 27.6955C23.0739 28.8838 22.8351 30.0339 22.3636 31.1143L14.5137 46.8369L12.7651 43.3354C12.524 42.8529 11.9376 42.6564 11.4551 42.8979C10.9729 43.1386 10.7768 43.7253 11.0179 44.2079L13.6398 49.4596C13.6413 49.4626 13.6436 49.4653 13.6451 49.4687C13.6642 49.5053 13.6848 49.5408 13.708 49.5748C13.7111 49.5793 13.7145 49.5835 13.718 49.5881C13.7382 49.6163 13.7599 49.6438 13.7832 49.6697C13.7904 49.6781 13.7981 49.6865 13.8057 49.6945C13.832 49.7224 13.8599 49.7495 13.8892 49.7739C13.8904 49.7747 13.8912 49.7758 13.8919 49.7766C13.9228 49.8021 13.9556 49.8246 13.9896 49.8464C13.9976 49.8517 14.006 49.8567 14.0144 49.8612C14.0441 49.8796 14.075 49.896 14.1071 49.9105C14.1124 49.9127 14.1174 49.9154 14.1223 49.9177C14.1597 49.9341 14.1982 49.9482 14.2383 49.96C14.2452 49.962 14.252 49.9631 14.2589 49.9654C14.2917 49.9742 14.3249 49.981 14.3588 49.9864C14.3691 49.9883 14.3794 49.9898 14.3897 49.9913C14.4302 49.9967 14.4714 50.0001 14.5137 50.0001H44.6896C47.419 50.0001 49.6395 47.7796 49.6395 45.0498V35.0907C49.6395 32.3613 47.419 30.1407 44.6896 30.1407H35.5621C33.9096 30.1407 32.5649 28.7961 32.5649 27.1435V17.1845C32.5649 15.532 33.9096 14.1873 35.5621 14.1873H41.2044V16.5882C41.2044 17.1276 41.642 17.5648 42.181 17.5648C42.7204 17.5648 43.1576 17.1276 43.1576 16.5882V9.70194H50.3765H50.3784C50.9178 9.70194 51.355 9.26439 51.355 8.72537C51.355 8.51747 51.2901 8.32521 51.1795 8.1669ZM43.1576 7.74881V1.95313H48.6347L47.1745 4.34152C46.9833 4.65394 46.9833 5.04762 47.1745 5.36042L48.6347 7.74881H43.1576Z" fill="white"/>
<path fill-rule="evenodd" clip-rule="evenodd" d="M10.5134 39.2022C9.97551 39.2022 9.53644 39.6409 9.53644 40.1788C9.53644 40.7167 9.97551 41.1553 10.5134 41.1553C11.0513 41.1553 11.4899 40.7167 11.4899 40.1788C11.4899 39.6409 11.0513 39.2022 10.5134 39.2022Z" fill="white"/>
</g>
<defs>
<filter id="filter0_d" x="0" y="0" width="55.355" height="58.0001" filterUnits="userSpaceOnUse" color-interpolation-filters="sRGB">
<feFlood flood-opacity="0" result="BackgroundImageFix"/>
<feColorMatrix in="SourceAlpha" type="matrix" values="0 0 0 0 0 0 0 0 0 0 0 0 0 0 0 0 0 0 127 0"/>
<feOffset dy="4"/>
<feGaussianBlur stdDeviation="2"/>
<feColorMatrix type="matrix" values="0 0 0 0 0 0 0 0 0 0 0 0 0 0 0 0 0 0 0.25 0"/>
<feBlend mode="normal" in2="BackgroundImageFix" result="effect1_dropShadow"/>
<feBlend mode="normal" in="SourceGraphic" in2="effect1_dropShadow" result="shape"/>
</filter>
</defs>
</svg>
