<svg width="62" height="54" viewBox="0 0 62 54" fill="none" xmlns="http://www.w3.org/2000/svg">
<g clip-path="url(#clip0)" filter="url(#filter0_d)">
<path d="M57.971 33.7946C57.8365 30.7007 57.2984 27.2705 56.4913 24.042C55.6842 20.9481 54.6753 18.0559 53.4646 15.8364C48.7565 7.56348 43.6448 8.84141 37.5242 10.4556C35.5736 10.9265 33.4886 11.4645 31.3363 11.6663H30.6637C28.5114 11.4645 26.4264 10.9265 24.4759 10.4556C18.3553 8.90867 13.2436 7.56348 8.5354 15.9036C7.32473 18.1232 6.24858 21.0154 5.50873 24.1093C4.70162 27.3377 4.16354 30.768 4.02902 33.8619C3.89451 37.2921 4.2308 39.7807 4.97065 41.5295C5.71051 43.1437 6.78666 44.1526 8.1991 44.5561C9.47703 44.8924 10.9567 44.7579 12.5037 44.0853C15.1268 43.0092 18.1535 40.7223 21.1129 37.9647C23.1979 35.9469 27.099 34.938 31 34.938C34.9011 34.938 38.8021 35.9469 40.8871 37.9647C43.8465 40.7223 46.8732 43.0092 49.4963 44.0853C51.0433 44.6906 52.523 44.8924 53.8009 44.5561C55.1461 44.1526 56.2895 43.2109 57.0294 41.4622C57.7692 39.7807 58.1055 37.2921 57.971 33.7946ZM54.7425 40.5206C54.339 41.4622 53.8009 42.0003 53.1283 42.2021C52.3885 42.4038 51.4468 42.2693 50.3707 41.8658C48.0166 40.9241 45.259 38.8391 42.5686 36.2832C40.0128 33.7274 35.5064 32.4494 31 32.4494C26.4936 32.4494 21.9873 33.7274 19.3641 36.1487C16.6065 38.7046 13.8489 40.8569 11.5621 41.7312C10.4859 42.1348 9.54429 42.3366 8.80444 42.0675C8.13184 41.8658 7.59377 41.3277 7.19021 40.386C6.65214 39.1081 6.3831 37.0231 6.51762 33.9292C6.65214 31.037 7.12295 27.7413 7.93006 24.6474C8.66992 21.7552 9.61155 19.0648 10.755 17.0471C14.4542 10.3884 18.7588 11.4645 23.8705 12.8097C25.9556 13.3478 28.1079 13.8859 30.4619 14.0876C30.5292 14.0876 30.5292 14.0876 30.5965 14.0876H31.3363C31.4036 14.0876 31.4036 14.0876 31.4708 14.0876C33.8922 13.8859 36.0445 13.3478 38.1295 12.8097C43.2412 11.5318 47.5458 10.3884 51.2451 17.0471C52.3885 19.0648 53.3301 21.6879 54.07 24.6474C54.8098 27.7413 55.3479 30.9697 55.4824 33.9292C55.6169 37.0231 55.3479 39.1081 54.7425 40.5206Z" fill="white"/>
<path d="M24.8122 20.679C24.1396 20.0737 23.3325 19.6029 22.3909 19.5356C22.3236 18.6613 21.9201 17.7869 21.3147 17.1816L21.2475 17.1143C20.5076 16.3744 19.566 15.9709 18.4898 15.9709C17.4137 15.9709 16.4048 16.4417 15.7322 17.1143C15.1269 17.7196 14.6561 18.594 14.5888 19.5356C13.6472 19.6029 12.84 20.0064 12.1675 20.6118L12.1002 20.679C11.3603 21.4189 10.9568 22.3605 10.9568 23.4367C10.9568 24.5128 11.4276 25.5217 12.1002 26.1943C12.7728 26.8669 13.5799 27.2705 14.5888 27.3377C14.6561 28.2793 15.0596 29.1537 15.7322 29.7591C16.4721 30.4989 17.4137 30.9025 18.4898 30.9025C19.566 30.9025 20.5749 30.4316 21.2475 29.7591C21.8528 29.0865 22.3236 28.2793 22.3909 27.3377C23.3325 27.2705 24.2069 26.8669 24.8122 26.1943C25.5521 25.4545 25.9556 24.5128 25.9556 23.4367C25.9556 22.3605 25.4848 21.3516 24.8122 20.679ZM23.1307 24.4456C22.8617 24.7146 22.5254 24.8491 22.1218 24.8491H21.1802C20.5076 24.8491 19.9023 25.3872 19.9023 26.127V27.0014C19.9023 27.405 19.7678 27.7413 19.4987 28.0103C19.2297 28.2793 18.8934 28.4139 18.4898 28.4139C18.0863 28.4139 17.75 28.2793 17.4809 28.0103C17.2119 27.7413 17.0774 27.405 17.0774 27.0014V26.0598C17.0774 25.3872 16.5393 24.7819 15.7995 24.7819H14.8578C14.4543 24.7819 14.118 24.6473 13.8489 24.3783C13.6472 24.1765 13.4454 23.8402 13.4454 23.4367C13.4454 23.0331 13.5799 22.6968 13.8489 22.4278C13.8489 22.4278 13.8489 22.4278 13.9162 22.3605C14.1852 22.1587 14.5215 22.0242 14.8578 22.0242H15.7995C16.4721 22.0242 17.0774 21.4862 17.0774 20.7463V19.8047C17.0774 19.4011 17.2119 19.0648 17.4809 18.7958C17.75 18.5267 18.0863 18.3922 18.4898 18.3922C18.8934 18.3922 19.2297 18.5267 19.4987 18.7958C19.4987 18.7958 19.4987 18.7958 19.566 18.863C19.7678 19.1321 19.9023 19.4684 19.9023 19.8047V20.7463C19.9023 21.4189 20.4404 22.0242 21.1802 22.0242H22.1218C22.5254 22.0242 22.8617 22.1587 23.1307 22.4278C23.3998 22.6968 23.5343 23.0331 23.5343 23.4367C23.5343 23.8402 23.3998 24.1765 23.1307 24.4456Z" fill="white"/>
<path d="M42.7032 21.0153C44.0033 21.0153 45.0573 19.9614 45.0573 18.6613C45.0573 17.3611 44.0033 16.3072 42.7032 16.3072C41.4031 16.3072 40.3491 17.3611 40.3491 18.6613C40.3491 19.9614 41.4031 21.0153 42.7032 21.0153Z" fill="white"/>
<path d="M42.7032 30.5662C44.0033 30.5662 45.0573 29.5122 45.0573 28.2121C45.0573 26.912 44.0033 25.858 42.7032 25.858C41.4031 25.858 40.3491 26.912 40.3491 28.2121C40.3491 29.5122 41.4031 30.5662 42.7032 30.5662Z" fill="white"/>
<path d="M37.9278 25.7908C39.2279 25.7908 40.2819 24.7368 40.2819 23.4367C40.2819 22.1366 39.2279 21.0826 37.9278 21.0826C36.6277 21.0826 35.5737 22.1366 35.5737 23.4367C35.5737 24.7368 36.6277 25.7908 37.9278 25.7908Z" fill="white"/>
<path d="M47.4786 25.7908C48.7787 25.7908 49.8327 24.7368 49.8327 23.4367C49.8327 22.1366 48.7787 21.0826 47.4786 21.0826C46.1785 21.0826 45.1245 22.1366 45.1245 23.4367C45.1245 24.7368 46.1785 25.7908 47.4786 25.7908Z" fill="white"/>
</g>
<defs>
<filter id="filter0_d" x="0" y="0" width="62" height="62" filterUnits="userSpaceOnUse" color-interpolation-filters="sRGB">
<feFlood flood-opacity="0" result="BackgroundImageFix"/>
<feColorMatrix in="SourceAlpha" type="matrix" values="0 0 0 0 0 0 0 0 0 0 0 0 0 0 0 0 0 0 127 0"/>
<feOffset dy="4"/>
<feGaussianBlur stdDeviation="2"/>
<feColorMatrix type="matrix" values="0 0 0 0 0 0 0 0 0 0 0 0 0 0 0 0 0 0 0.25 0"/>
<feBlend mode="normal" in2="BackgroundImageFix" result="effect1_dropShadow"/>
<feBlend mode="normal" in="SourceGraphic" in2="effect1_dropShadow" result="shape"/>
</filter>
<clipPath id="clip0">
<rect width="54" height="54" fill="white" transform="translate(4)"/>
</clipPath>
</defs>
</svg>
