<svg width="50" height="44" viewBox="0 0 50 44" fill="none" xmlns="http://www.w3.org/2000/svg">
<path d="M46.5366 0H3.46339C1.55377 0 0 1.55377 0 3.46339V32.686C0 34.5957 1.55377 36.1494 3.46339 36.1494H28.5801L27.8217 40.7745C27.679 41.6451 27.9669 42.4338 28.5921 42.8838C29.2171 43.3339 30.0559 43.358 30.8366 42.9466L36.2555 40.0943C36.4067 40.0167 36.8233 40.0167 36.9745 40.0943L42.3934 42.9466C42.7641 43.1417 43.148 43.2389 43.516 43.2389C43.9229 43.2389 44.31 43.1199 44.6381 42.8836C45.2631 42.4336 45.551 41.6447 45.4085 40.7741L44.6504 36.1492H46.5368C48.4464 36.1492 50.0002 34.5955 50.0002 32.6858V3.46339C50 1.55358 48.4462 0 46.5366 0ZM36.6151 30.213C33.2869 30.213 30.5789 27.505 30.5789 24.1768C30.5789 20.8486 33.2869 18.1406 36.6151 18.1406C39.9433 18.1406 42.6513 20.8486 42.6513 24.1768C42.6513 27.505 39.9433 30.213 36.6151 30.213ZM38.3573 37.4675C37.3478 36.9359 35.8823 36.9359 34.8729 37.4675L31.0418 39.484L32.2598 32.0547C33.5515 32.7717 35.0362 33.1814 36.6153 33.1814C38.1944 33.1814 39.6789 32.7715 40.9709 32.0547L41.4454 34.9511C41.4466 34.9558 41.447 34.961 41.448 34.9657L42.1888 39.4842L38.3573 37.4675ZM47.0314 32.686C47.0314 32.9542 46.8048 33.1808 46.5366 33.1808H44.1635L43.6214 29.874C43.6193 29.8609 43.6157 29.8484 43.6131 29.8354C44.8669 28.2881 45.6201 26.319 45.6201 24.1768C45.6201 19.2115 41.5806 15.172 36.6153 15.172C31.65 15.172 27.6105 19.2115 27.6105 24.1768C27.6105 26.319 28.3637 28.2877 29.6175 29.8354C29.6149 29.8482 29.6113 29.8609 29.6092 29.8738L29.0667 33.1834C29.0501 33.1828 29.0341 33.1808 29.0174 33.1808H3.46339C3.19522 33.1808 2.96862 32.9542 2.96862 32.686V3.46339C2.96862 3.19522 3.19522 2.96862 3.46339 2.96862H46.5366C46.8048 2.96862 47.0314 3.19522 47.0314 3.46339V32.686Z" fill="white"/>
<path d="M41.2873 8.54211H7.643C6.82307 8.54211 6.15869 9.20649 6.15869 10.0264C6.15869 10.8464 6.82307 11.5107 7.643 11.5107H41.2873C42.1072 11.5107 42.7716 10.8464 42.7716 10.0264C42.7716 9.20649 42.1072 8.54211 41.2873 8.54211Z" fill="white"/>
<path d="M21.8924 16.5906H7.643C6.82307 16.5906 6.15869 17.255 6.15869 18.0749C6.15869 18.8948 6.82307 19.5592 7.643 19.5592H21.8924C22.7123 19.5592 23.3767 18.8948 23.3767 18.0749C23.3767 17.255 22.7123 16.5906 21.8924 16.5906Z" fill="white"/>
</svg>
