<svg width="58" height="58" viewBox="0 0 58 58" fill="none" xmlns="http://www.w3.org/2000/svg">
<g filter="url(#filter0_d)">
<path d="M45.8796 2.22744C45.1063 0.853516 43.6315 0 42.0306 0H29.0938C26.6707 0 24.6993 1.97139 24.6993 4.39453V10.2539C24.6993 12.6771 26.6707 14.6484 29.0938 14.6484H37.8829C38.6906 14.6484 39.3477 15.3056 39.3477 16.1133V27.6204C35.124 26.4657 30.6717 26.323 26.3917 27.1937C23.1306 24.0732 18.512 22.8038 13.8998 23.957C9.28827 25.1101 5.46102 28.8732 4.36561 33.5572C3.42362 37.5863 4.34198 41.7364 6.88553 44.9433C9.43426 48.1568 13.2221 50 17.2774 50C36.4 50 49.6371 42.7338 53.1864 40.9587C53.6827 40.7105 53.9962 40.2033 53.9962 39.6484V33.2938C53.9962 22.4039 51.1894 11.6613 45.8796 2.22744ZM51.0665 38.7458C46.3076 41.1429 34.2604 47.0703 17.2774 47.0703C14.1218 47.0703 11.1707 45.6314 9.18075 43.1226C7.19637 40.6206 6.48104 37.3772 7.21835 34.2241C8.04667 30.6813 11.0174 27.6975 14.6103 26.799C17.5603 26.0613 20.5179 26.5658 22.906 28.1421C21.7639 28.5346 20.6432 29.0035 19.552 29.549C18.8284 29.9108 18.5351 30.7907 18.897 31.5144C19.2587 32.2379 20.1386 32.5312 20.8622 32.1694C27.8205 28.6903 36.1287 28.6902 43.0872 32.1694C43.812 32.5319 44.6913 32.2366 45.0524 31.5144C45.4142 30.7907 45.121 29.9108 44.3974 29.549C43.7021 29.2014 42.9946 28.8855 42.2774 28.5999V16.1133C42.2774 13.6901 40.306 11.7188 37.8829 11.7188H36.4181V7.32422C36.4181 6.51523 35.7622 5.85938 34.9532 5.85938H32.0235C31.2145 5.85938 30.5587 6.51523 30.5587 7.32422C30.5587 8.1332 31.2145 8.78906 32.0235 8.78906H33.4884V11.7188H29.0938C28.2861 11.7188 27.629 11.0616 27.629 10.2539V4.39453C27.629 3.58682 28.2861 2.92969 29.0938 2.92969H42.0306C42.5749 2.92969 43.0715 3.21123 43.3266 3.66436C48.3902 12.6605 51.0666 22.9062 51.0666 33.2938V38.7458H51.0665Z" fill="white"/>
</g>
<defs>
<filter id="filter0_d" x="0" y="0" width="58" height="58" filterUnits="userSpaceOnUse" color-interpolation-filters="sRGB">
<feFlood flood-opacity="0" result="BackgroundImageFix"/>
<feColorMatrix in="SourceAlpha" type="matrix" values="0 0 0 0 0 0 0 0 0 0 0 0 0 0 0 0 0 0 127 0"/>
<feOffset dy="4"/>
<feGaussianBlur stdDeviation="2"/>
<feColorMatrix type="matrix" values="0 0 0 0 0 0 0 0 0 0 0 0 0 0 0 0 0 0 0.25 0"/>
<feBlend mode="normal" in2="BackgroundImageFix" result="effect1_dropShadow"/>
<feBlend mode="normal" in="SourceGraphic" in2="effect1_dropShadow" result="shape"/>
</filter>
</defs>
</svg>
