<svg width="59" height="44" viewBox="0 0 59 44" fill="none" xmlns="http://www.w3.org/2000/svg">
<path d="M13.3775 43.72C9.43083 43.72 6.23083 42.3333 3.7775 39.56C1.43083 36.68 0.2575 32.9467 0.2575 28.36C0.2575 22.3867 2.0175 16.84 5.5375 11.72C9.0575 6.49333 13.4308 2.6 18.6575 0.039999L19.6175 1.95999C17.3775 3.66666 15.4042 5.85333 13.6975 8.51999C11.9908 11.1867 10.7642 14.4933 10.0175 18.44L13.3775 19.24C17.1108 20.0933 19.9908 21.6933 22.0175 24.04C24.1508 26.28 25.2175 29 25.2175 32.2C25.2175 35.6133 24.0442 38.3867 21.6975 40.52C19.4575 42.6533 16.6842 43.72 13.3775 43.72ZM47.1375 43.72C43.1908 43.72 39.9908 42.3333 37.5375 39.56C35.1908 36.68 34.0175 32.9467 34.0175 28.36C34.0175 22.3867 35.7775 16.84 39.2975 11.72C42.8175 6.49333 47.1908 2.6 52.4175 0.039999L53.3775 1.95999C51.1375 3.66666 49.1642 5.85333 47.4575 8.51999C45.7508 11.1867 44.5242 14.4933 43.7775 18.44L47.1375 19.24C50.8708 20.0933 53.7508 21.6933 55.7775 24.04C57.9108 26.28 58.9775 29 58.9775 32.2C58.9775 35.6133 57.8042 38.3867 55.4575 40.52C53.2175 42.6533 50.4442 43.72 47.1375 43.72Z" fill="url(#paint0_linear)"/>
<defs>
<linearGradient id="paint0_linear" x1="30" y1="5" x2="30" y2="116" gradientUnits="userSpaceOnUse">
<stop stop-color="#E858FD"/>
<stop offset="1" stop-color="#49C8FE"/>
</linearGradient>
</defs>
</svg>
